<svg xmlns="http://www.w3.org/2000/svg" viewBox="0 0 64 64">
  <defs>
    <style>
      .cloud { fill: #E8F4FD; }
      .cloud-shadow { fill: #D4E8FC; }
    </style>
  </defs>
  <!-- Cloud shape -->
  <path class="cloud-shadow" d="M48 32c6.627 0 12 5.373 12 12s-5.373 12-12 12H20c-8.837 0-16-7.163-16-16s7.163-16 16-16c2.197 0 4.294.443 6.205 1.245C28.968 19.19 34.18 16 40 16c8.837 0 16 7.163 16 16z"/>
  <path class="cloud" d="M46 30c6.627 0 12 5.373 12 12s-5.373 12-12 12H18c-8.837 0-16-7.163-16-16s7.163-16 16-16c2.197 0 4.294.443 6.205 1.245C26.968 17.19 32.18 14 38 14c8.837 0 16 7.163 16 16z"/>
</svg>